<svg xmlns="http://www.w3.org/2000/svg" viewBox="0 0 720 360" width="720" height="360" role="img" aria-label="A hiring freeze ends the year with far fewer people"><style>
  svg { --surface:#fcfcfb; --ink:#0b0b0b; --ink2:#52514e; --muted:#898781; --grid:#e1e0d9; --axis:#c3c2b7;
        --s1:#2a78d6; --s2:#eb6834; --s3:#1baf7a; --base:#0b0b0b; --up:#e34948; --down:#2a78d6; }
  @media (prefers-color-scheme: dark) {
    svg { --surface:#1a1a19; --ink:#ffffff; --ink2:#c3c2b7; --muted:#898781; --grid:#2c2c2a; --axis:#383835;
          --s1:#3987e5; --s2:#d95926; --s3:#199e70; --base:#ffffff; --up:#e66767; --down:#3987e5; }
  }
  text { font-family: system-ui, -apple-system, "Segoe UI", sans-serif; fill: var(--ink2); font-size: 12px; }
  .title { fill: var(--ink); font-size: 15px; font-weight: 600; }
  .muted { fill: var(--muted); font-size: 11px; }
  .val { fill: var(--ink); font-variant-numeric: tabular-nums; paint-order: stroke; stroke: var(--surface);
         stroke-width: 4px; stroke-linejoin: round; }
</style><rect width="720" height="360" rx="8" fill="var(--surface)"/><text x="24" y="34" class="title">A hiring freeze ends the year with far fewer people</text><text x="24" y="54">Month-end FTE, both entities: FY2026 actual, then FY2027 by scenario</text><rect x="60" y="66" width="18" height="3" fill="var(--base)"/><text x="84" y="71">FY2026 actual</text><rect x="187" y="66" width="18" height="3" fill="var(--s1)"/><text x="211" y="71">Base</text><rect x="251" y="66" width="18" height="3" fill="var(--s2)"/><text x="275" y="71">Hiring freeze</text><rect x="378" y="66" width="18" height="3" fill="var(--s3)"/><text x="402" y="71">High attrition</text><line x1="60" x2="570" y1="320.0" y2="320.0" stroke="var(--grid)"/><text x="52" y="324.0" text-anchor="end" class="muted">1,800</text><line x1="60" x2="570" y1="274.4" y2="274.4" stroke="var(--grid)"/><text x="52" y="278.4" text-anchor="end" class="muted">1,900</text><line x1="60" x2="570" y1="228.8" y2="228.8" stroke="var(--grid)"/><text x="52" y="232.8" text-anchor="end" class="muted">2,000</text><line x1="60" x2="570" y1="183.2" y2="183.2" stroke="var(--grid)"/><text x="52" y="187.2" text-anchor="end" class="muted">2,100</text><line x1="60" x2="570" y1="137.6" y2="137.6" stroke="var(--grid)"/><text x="52" y="141.6" text-anchor="end" class="muted">2,200</text><line x1="60" x2="570" y1="92.0" y2="92.0" stroke="var(--grid)"/><text x="52" y="96.0" text-anchor="end" class="muted">2,300</text><text x="60.0" y="344" text-anchor="middle" class="muted">Jul 25</text><text x="126.5" y="344" text-anchor="middle" class="muted">Oct 25</text><text x="193.0" y="344" text-anchor="middle" class="muted">Jan 26</text><text x="259.6" y="344" text-anchor="middle" class="muted">Apr 26</text><text x="326.1" y="344" text-anchor="middle" class="muted">Jul 26</text><text x="392.6" y="344" text-anchor="middle" class="muted">Oct 26</text><text x="459.1" y="344" text-anchor="middle" class="muted">Jan 27</text><text x="525.7" y="344" text-anchor="middle" class="muted">Apr 27</text><text x="570.0" y="344" text-anchor="middle" class="muted">Jun 27</text><line x1="303.9" x2="303.9" y1="86" y2="320" stroke="var(--axis)"/><path d="M60.0,219.2 L82.2,213.8 L104.3,209.1 L126.5,193.5 L148.7,180.4 L170.9,163.9 L193.0,155.6 L215.2,146.5 L237.4,134.7 L259.6,135.0 L281.7,144.0 L303.9,150.5" fill="none" stroke="var(--base)" stroke-width="2"/><path d="M303.9,150.5 L326.1,150.4 L348.3,150.4 L370.4,150.4 L392.6,150.4 L414.8,150.3 L437.0,150.3 L459.1,150.3 L481.3,150.3 L503.5,150.2 L525.7,150.2 L547.8,150.2 L570.0,150.2" fill="none" stroke="var(--s1)" stroke-width="2" stroke-linejoin="round"/><circle cx="326.1" cy="150.4" r="7" fill="transparent"><title>Base, Jul 26: 2,172 FTE</title></circle><circle cx="348.3" cy="150.4" r="7" fill="transparent"><title>Base, Aug 26: 2,172 FTE</title></circle><circle cx="370.4" cy="150.4" r="7" fill="transparent"><title>Base, Sep 26: 2,172 FTE</title></circle><circle cx="392.6" cy="150.4" r="7" fill="transparent"><title>Base, Oct 26: 2,172 FTE</title></circle><circle cx="414.8" cy="150.3" r="7" fill="transparent"><title>Base, Nov 26: 2,172 FTE</title></circle><circle cx="437.0" cy="150.3" r="7" fill="transparent"><title>Base, Dec 26: 2,172 FTE</title></circle><circle cx="459.1" cy="150.3" r="7" fill="transparent"><title>Base, Jan 27: 2,172 FTE</title></circle><circle cx="481.3" cy="150.3" r="7" fill="transparent"><title>Base, Feb 27: 2,172 FTE</title></circle><circle cx="503.5" cy="150.2" r="7" fill="transparent"><title>Base, Mar 27: 2,172 FTE</title></circle><circle cx="525.7" cy="150.2" r="7" fill="transparent"><title>Base, Apr 27: 2,172 FTE</title></circle><circle cx="547.8" cy="150.2" r="7" fill="transparent"><title>Base, May 27: 2,172 FTE</title></circle><circle cx="570.0" cy="150.2" r="7" fill="transparent"><title>Base, Jun 27: 2,172 FTE</title></circle><path d="M303.9,150.5 L326.1,151.9 L348.3,153.3 L370.4,154.7 L392.6,169.1 L414.8,183.3 L437.0,197.3 L459.1,211.1 L481.3,224.6 L503.5,238.0 L525.7,251.1 L547.8,264.0 L570.0,276.8" fill="none" stroke="var(--s2)" stroke-width="2" stroke-linejoin="round"/><circle cx="326.1" cy="151.9" r="7" fill="transparent"><title>Hiring freeze, Jul 26: 2,169 FTE</title></circle><circle cx="348.3" cy="153.3" r="7" fill="transparent"><title>Hiring freeze, Aug 26: 2,165 FTE</title></circle><circle cx="370.4" cy="154.7" r="7" fill="transparent"><title>Hiring freeze, Sep 26: 2,162 FTE</title></circle><circle cx="392.6" cy="169.1" r="7" fill="transparent"><title>Hiring freeze, Oct 26: 2,131 FTE</title></circle><circle cx="414.8" cy="183.3" r="7" fill="transparent"><title>Hiring freeze, Nov 26: 2,100 FTE</title></circle><circle cx="437.0" cy="197.3" r="7" fill="transparent"><title>Hiring freeze, Dec 26: 2,069 FTE</title></circle><circle cx="459.1" cy="211.1" r="7" fill="transparent"><title>Hiring freeze, Jan 27: 2,039 FTE</title></circle><circle cx="481.3" cy="224.6" r="7" fill="transparent"><title>Hiring freeze, Feb 27: 2,009 FTE</title></circle><circle cx="503.5" cy="238.0" r="7" fill="transparent"><title>Hiring freeze, Mar 27: 1,980 FTE</title></circle><circle cx="525.7" cy="251.1" r="7" fill="transparent"><title>Hiring freeze, Apr 27: 1,951 FTE</title></circle><circle cx="547.8" cy="264.0" r="7" fill="transparent"><title>Hiring freeze, May 27: 1,923 FTE</title></circle><circle cx="570.0" cy="276.8" r="7" fill="transparent"><title>Hiring freeze, Jun 27: 1,895 FTE</title></circle><path d="M303.9,150.5 L326.1,150.9 L348.3,151.3 L370.4,151.7 L392.6,152.1 L414.8,152.4 L437.0,152.8 L459.1,153.2 L481.3,153.6 L503.5,154.0 L525.7,154.4 L547.8,154.8 L570.0,155.2" fill="none" stroke="var(--s3)" stroke-width="2" stroke-linejoin="round"/><circle cx="326.1" cy="150.9" r="7" fill="transparent"><title>High attrition, Jul 26: 2,171 FTE</title></circle><circle cx="348.3" cy="151.3" r="7" fill="transparent"><title>High attrition, Aug 26: 2,170 FTE</title></circle><circle cx="370.4" cy="151.7" r="7" fill="transparent"><title>High attrition, Sep 26: 2,169 FTE</title></circle><circle cx="392.6" cy="152.1" r="7" fill="transparent"><title>High attrition, Oct 26: 2,168 FTE</title></circle><circle cx="414.8" cy="152.4" r="7" fill="transparent"><title>High attrition, Nov 26: 2,167 FTE</title></circle><circle cx="437.0" cy="152.8" r="7" fill="transparent"><title>High attrition, Dec 26: 2,167 FTE</title></circle><circle cx="459.1" cy="153.2" r="7" fill="transparent"><title>High attrition, Jan 27: 2,166 FTE</title></circle><circle cx="481.3" cy="153.6" r="7" fill="transparent"><title>High attrition, Feb 27: 2,165 FTE</title></circle><circle cx="503.5" cy="154.0" r="7" fill="transparent"><title>High attrition, Mar 27: 2,164 FTE</title></circle><circle cx="525.7" cy="154.4" r="7" fill="transparent"><title>High attrition, Apr 27: 2,163 FTE</title></circle><circle cx="547.8" cy="154.8" r="7" fill="transparent"><title>High attrition, May 27: 2,162 FTE</title></circle><circle cx="570.0" cy="155.2" r="7" fill="transparent"><title>High attrition, Jun 27: 2,161 FTE</title></circle><circle cx="570.0" cy="150.2" r="4" fill="var(--s1)" stroke="var(--surface)" stroke-width="2"/><text x="580.0" y="154.2" class="val">2,172</text><circle cx="570.0" cy="155.2" r="4" fill="var(--s3)" stroke="var(--surface)" stroke-width="2"/><text x="580.0" y="169.2" class="val">2,161</text><circle cx="570.0" cy="276.8" r="4" fill="var(--s2)" stroke="var(--surface)" stroke-width="2"/><text x="580.0" y="280.8" class="val">1,895</text></svg>
